# xmcd
#
# Track frame offsets: 
#        150
#        34672
#        65275
#        103622
#        133997
#        169798
#        201892
#        257964
#        293509
#
# Disc length: 4464 seconds
#
# Revision: 0
# Processed by: cddbd v1.5.2PL0 Copyright (c) Steve Scherf et al.
# Submitted via: ExactAudioCopy v0.99pb4
#
DISCID=82116e09
DTITLE=Gov't Mule - The Madison House, Mercersburg, PA (1)
DYEAR=1999
DGENRE=Southern Rock
TTITLE0=John The Revelator
TTITLE1=Life Before Insanity
TTITLE2=Cortez The Killer
TTITLE3=Gonna Send You Back To Georgia
TTITLE4=Sad And Deep As You
TTITLE5=Dolphineus/Painted Silver Light
TTITLE6=Afro Blue
TTITLE7=I Shall Be Released
TTITLE8=Gambler's Roll
EXTD=
EXTT0=
EXTT1=
EXTT2=
EXTT3=
EXTT4=
EXTT5=
EXTT6=
EXTT7=
EXTT8=
PLAYORDER=
